<?xml version="1.0" standalone="no"?>
<!DOCTYPE svg PUBLIC "-//W3C//DTD SVG 20010904//EN"
 "http://www.w3.org/TR/2001/REC-SVG-20010904/DTD/svg10.dtd">
<svg version="1.0" xmlns="http://www.w3.org/2000/svg"
 width="640.000000pt" height="640.000000pt" viewBox="0 0 640.000000 640.000000"
 preserveAspectRatio="xMidYMid meet">
<metadata>
Created by potrace 1.14, written by Peter Selinger 2001-2017
</metadata>
<g transform="translate(0.000000,640.000000) scale(0.100000,-0.100000)"
fill="#000000" stroke="none">
<path d="M3010 6060 c0 -4 -15 -8 -32 -8 -18 0 -71 -2 -118 -6 -78 -6 -114
-11 -285 -48 -33 -7 -69 -13 -80 -14 -11 0 -32 -7 -45 -14 -14 -7 -26 -13 -27
-12 -3 2 -5 2 -20 -3 -5 -1 -21 -5 -38 -10 -16 -4 -34 -10 -40 -14 -5 -3 -12
-6 -15 -7 -38 -6 -90 -27 -90 -37 0 -7 -4 -6 -10 3 -6 9 -10 10 -10 3 0 -6
-14 -15 -32 -18 -17 -4 -47 -16 -65 -26 -18 -10 -33 -15 -33 -11 0 4 -4 1 -9
-6 -4 -7 -14 -15 -22 -16 -8 -1 -41 -15 -74 -31 -33 -15 -63 -27 -67 -27 -5 1
-8 -3 -8 -8 0 -6 -7 -10 -15 -10 -8 0 -15 -5 -15 -11 0 -5 -4 -7 -10 -4 -5 3
-10 3 -10 -2 0 -4 -25 -19 -55 -33 -30 -14 -55 -28 -55 -32 0 -5 -6 -8 -13 -8
-7 0 -23 -9 -35 -20 -12 -12 -22 -17 -22 -13 0 4 -4 3 -8 -2 -8 -12 -54 -42
-65 -43 -5 0 -19 -12 -32 -27 -14 -14 -27 -24 -29 -23 -3 2 -16 -6 -28 -17
-13 -11 -26 -19 -30 -17 -5 1 -8 -5 -8 -15 0 -9 -3 -14 -6 -10 -8 8 -44 -25
-38 -35 3 -4 -2 -5 -10 -2 -9 4 -18 -1 -22 -10 -3 -9 -10 -13 -15 -10 -5 3 -9
-2 -9 -10 0 -9 -3 -15 -7 -14 -5 2 -17 -6 -29 -17 -44 -43 -73 -63 -79 -57 -4
4 -5 2 -3 -4 3 -12 -58 -74 -67 -66 -3 3 -5 -1 -5 -9 0 -8 -14 -25 -30 -38
-16 -13 -27 -27 -24 -32 3 -5 -1 -9 -8 -9 -7 0 -22 -13 -33 -29 -10 -16 -23
-27 -27 -25 -4 3 -8 0 -8 -5 0 -6 -9 -20 -20 -31 -11 -11 -18 -20 -15 -20 3 0
-4 -11 -17 -25 -38 -40 -53 -59 -50 -63 2 -2 -8 -14 -22 -27 -14 -13 -26 -27
-26 -30 0 -4 -6 -13 -13 -20 -28 -32 -36 -43 -32 -47 2 -2 -9 -19 -25 -38 -17
-19 -30 -41 -30 -47 0 -7 -4 -13 -10 -13 -5 0 -10 -6 -10 -14 0 -7 -7 -20 -16
-27 -16 -13 -39 -58 -36 -71 1 -5 -2 -8 -8 -8 -5 0 -10 -6 -10 -14 0 -8 -3
-16 -7 -18 -13 -5 -88 -162 -85 -175 2 -7 -1 -13 -7 -13 -10 0 -48 -89 -43
-102 1 -5 -3 -8 -9 -8 -6 0 -9 -6 -6 -14 3 -8 1 -16 -5 -18 -6 -2 -13 -15 -15
-29 -2 -13 -8 -26 -13 -27 -6 -2 -8 -8 -5 -13 3 -4 -1 -21 -9 -37 -8 -16 -12
-32 -9 -36 4 -3 1 -6 -5 -6 -7 0 -11 -3 -10 -7 3 -15 -14 -83 -21 -83 -4 0 -8
-8 -9 -17 -2 -26 -8 -56 -15 -73 -10 -28 -29 -115 -33 -150 -3 -19 -7 -42 -11
-50 -3 -8 -6 -28 -7 -45 0 -16 -4 -32 -8 -35 -4 -3 -8 -34 -10 -68 -2 -34 -5
-62 -8 -62 -3 0 -5 -34 -5 -75 1 -45 -3 -75 -10 -75 -5 0 -4 -4 4 -9 11 -7 12
-13 3 -23 -12 -15 -15 -298 -3 -298 4 0 7 -30 8 -67 2 -103 13 -207 22 -213 4
-3 8 -18 8 -35 2 -50 15 -120 24 -123 4 -2 5 -10 2 -18 -3 -8 0 -21 6 -28 9
-10 9 -16 1 -21 -8 -5 -8 -10 0 -20 6 -7 12 -22 15 -33 2 -11 10 -41 19 -66 9
-26 16 -52 16 -59 0 -7 6 -24 14 -38 7 -14 16 -42 20 -63 4 -23 11 -34 18 -30
7 5 8 2 3 -5 -4 -7 -3 -23 3 -34 5 -12 17 -40 26 -62 10 -22 21 -48 27 -58 5
-10 7 -22 4 -26 -3 -5 2 -12 11 -15 9 -4 14 -9 11 -13 -4 -3 3 -19 15 -36 12
-17 16 -27 7 -22 -7 5 -1 -8 14 -28 16 -21 27 -44 24 -51 -3 -7 3 -19 13 -26
11 -8 17 -17 15 -21 -3 -3 4 -16 13 -27 10 -12 27 -39 37 -62 10 -22 22 -40
27 -40 5 0 7 -4 4 -9 -3 -5 1 -14 9 -21 8 -7 12 -17 8 -23 -3 -5 -2 -7 4 -4 6
4 19 -9 29 -28 10 -19 22 -35 27 -35 4 0 6 -4 2 -9 -3 -5 5 -17 17 -25 12 -9
19 -16 14 -16 -4 0 6 -18 23 -39 17 -21 31 -44 31 -51 0 -6 4 -9 8 -6 5 3 15
-6 22 -19 7 -14 17 -25 22 -25 4 0 8 -5 8 -10 0 -6 10 -21 22 -34 48 -49 83
-91 80 -98 -1 -5 4 -8 11 -8 7 0 19 -10 27 -21 8 -12 30 -35 47 -52 18 -16 30
-34 26 -40 -3 -6 -2 -7 4 -4 6 4 31 -14 57 -38 25 -25 49 -45 52 -45 3 0 19
-14 35 -31 16 -17 29 -28 29 -24 0 4 9 -3 20 -16 10 -13 19 -20 20 -15 0 4 14
-6 30 -24 17 -18 30 -29 30 -24 0 4 9 -2 20 -13 10 -12 29 -24 40 -28 11 -4
18 -11 15 -16 -4 -5 0 -9 7 -9 7 0 31 -15 53 -32 22 -18 35 -26 30 -18 -8 14
15 -3 53 -38 7 -6 20 -12 28 -12 8 0 14 -4 14 -8 0 -4 16 -14 35 -21 19 -7 35
-16 35 -21 0 -5 10 -12 22 -15 11 -4 43 -20 70 -36 26 -16 48 -26 48 -24 0 3
12 -3 27 -12 15 -10 27 -17 28 -15 0 2 13 -1 28 -7 17 -7 25 -15 21 -23 -4 -7
-3 -8 5 -4 7 4 28 0 47 -9 19 -9 44 -18 56 -20 12 -3 26 -9 32 -15 5 -5 21
-10 34 -10 13 0 20 -4 17 -10 -3 -6 1 -7 9 -4 10 4 16 1 16 -7 0 -11 3 -11 10
1 6 10 10 11 10 3 0 -7 9 -13 19 -13 11 0 26 -7 34 -15 12 -11 17 -12 20 -2 4
9 6 9 6 0 1 -7 12 -13 26 -13 14 0 25 -4 25 -8 0 -7 13 -10 73 -14 15 -1 27
-5 27 -9 0 -7 40 -16 95 -23 17 -2 37 -6 45 -9 18 -7 75 -18 110 -20 14 -1 31
-6 39 -11 10 -6 12 -6 7 2 -10 16 7 15 23 -1 11 -10 12 -9 6 3 -6 12 -5 13 6
3 7 -7 31 -13 54 -13 23 0 46 -5 53 -12 9 -9 12 -9 12 1 0 7 5 9 11 5 15 -9
458 -11 462 -2 1 4 34 8 74 10 39 1 69 6 66 11 -2 4 10 7 29 6 18 0 52 2 76 6
24 4 49 8 55 9 7 1 18 5 25 9 6 5 12 6 12 3 0 -3 18 1 39 9 22 7 41 12 44 9 2
-2 22 2 45 10 22 8 57 17 78 21 21 3 41 10 45 16 3 6 9 10 13 9 13 -3 71 13
84 22 6 6 12 8 12 5 0 -4 20 2 44 13 24 10 47 16 50 13 3 -4 6 -1 6 6 0 7 4
10 9 6 5 -3 12 -1 16 5 3 5 15 10 26 10 11 0 22 7 26 16 5 13 7 13 14 2 7 -10
9 -10 9 0 0 6 9 12 20 12 11 0 20 4 20 9 0 8 32 20 53 20 4 0 15 7 23 16 9 8
24 15 35 15 10 0 19 4 19 9 0 10 39 27 53 23 4 -1 7 2 7 6 0 5 21 20 48 33 26
13 49 27 50 32 2 4 12 7 22 7 11 0 23 6 27 13 4 6 20 18 35 26 15 8 36 22 47
32 10 10 21 16 23 13 3 -2 15 7 28 21 13 14 30 25 37 25 8 0 12 4 9 9 -4 5 8
12 25 16 19 4 29 12 25 20 -3 8 4 16 17 19 12 3 39 21 60 40 20 19 37 33 37
31 0 -2 19 14 42 35 23 22 46 36 51 33 6 -3 7 -1 3 5 -3 6 4 18 16 26 12 9 19
16 14 16 -5 0 4 10 20 22 37 29 114 110 114 121 0 5 4 6 9 2 5 -3 12 3 16 14
3 11 13 22 21 25 9 3 12 11 8 18 -5 8 -2 9 9 5 9 -3 16 -3 15 1 -3 14 14 42
23 36 5 -3 9 1 9 8 0 8 13 28 29 46 17 17 27 32 23 32 -4 0 1 5 11 11 9 6 15
14 12 20 -4 5 -2 9 3 9 5 0 22 20 38 45 15 25 32 45 37 45 4 0 5 5 2 10 -3 6
-2 10 4 10 5 0 12 8 15 18 3 9 17 30 31 46 13 16 22 33 19 37 -3 5 0 9 5 9 6
0 11 7 11 15 0 7 6 18 14 22 8 4 14 10 14 13 -2 14 15 50 23 50 6 0 7 5 4 10
-3 6 -2 10 3 10 9 0 25 37 23 53 -1 4 4 7 10 7 5 0 7 5 4 10 -3 6 -1 10 4 10
6 0 11 7 11 16 0 9 9 29 21 45 11 16 18 29 14 29 -3 0 7 25 24 55 16 30 33 70
37 90 3 20 10 32 17 28 5 -3 7 -2 4 4 -3 5 6 40 20 79 13 38 27 80 30 94 2 13
10 31 16 39 10 12 9 13 -2 7 -9 -6 -9 -2 3 16 8 13 16 38 18 56 1 17 5 32 9
32 3 0 5 10 5 22 -1 13 1 28 5 33 4 6 9 22 11 35 2 14 6 30 9 35 4 6 5 20 4
32 -1 13 1 23 5 23 3 0 7 19 9 42 1 23 7 49 14 57 10 12 9 13 -1 7 -10 -6 -11
-1 -6 20 4 16 7 34 7 41 0 7 5 13 10 13 5 0 4 6 -2 14 -7 8 -8 17 -3 20 5 3
10 36 11 73 4 104 5 117 16 125 6 5 5 8 -2 8 -9 0 -10 7 -3 26 7 18 7 23 -2
18 -7 -5 -8 -3 -3 6 9 15 13 220 4 220 -3 0 -7 28 -8 62 -1 34 -5 67 -9 72 -4
6 -7 36 -8 67 0 31 -3 60 -6 65 -2 5 -5 25 -7 44 -2 19 -7 42 -11 50 -4 8 -6
27 -4 43 1 15 -1 27 -5 27 -4 0 -8 13 -9 29 0 17 -6 39 -12 51 -6 12 -9 28 -6
36 4 10 2 12 -6 8 -7 -5 -9 0 -6 14 4 12 2 22 -3 22 -5 0 -9 11 -9 24 0 13 -7
41 -16 62 -16 38 -25 69 -26 92 -1 6 -5 12 -10 12 -4 0 -8 11 -8 24 0 13 -6
27 -12 29 -9 4 -9 6 1 6 12 1 12 3 -2 14 -9 6 -18 25 -21 42 -3 16 -10 31 -16
33 -5 2 -8 8 -4 13 3 5 1 9 -4 9 -5 0 -9 6 -9 13 0 6 -10 35 -23 62 -13 28
-23 53 -22 58 1 4 -2 7 -8 7 -6 0 -10 3 -9 8 2 15 -14 52 -23 52 -5 0 -6 5 -3
10 3 6 1 10 -6 10 -7 0 -9 3 -6 6 4 4 -2 19 -13 34 -11 16 -20 33 -20 39 0 6
-4 11 -8 11 -5 0 -14 16 -22 35 -8 19 -17 35 -21 35 -3 0 -12 14 -19 30 -7 17
-16 30 -21 30 -5 0 -8 3 -7 8 2 4 -8 21 -21 39 -13 17 -24 35 -24 40 -1 4 -10
18 -22 29 -11 12 -27 31 -35 44 -8 12 -20 28 -27 35 -7 7 -9 15 -6 19 4 3 -1
6 -10 6 -10 0 -17 5 -17 12 0 6 -7 18 -15 27 -8 9 -30 32 -49 52 -19 21 -32
40 -29 43 4 3 1 6 -5 6 -6 0 -14 9 -17 21 -4 11 -9 18 -12 16 -5 -6 -113 104
-113 116 0 4 -4 7 -9 7 -5 0 -28 18 -51 40 -23 22 -46 40 -51 40 -6 0 -7 5 -4
10 3 6 1 10 -4 10 -12 0 -41 22 -83 63 -15 15 -28 25 -28 21 0 -4 -9 3 -20 16
-11 13 -20 20 -20 16 0 -4 -10 3 -22 14 -13 12 -35 28 -50 36 -16 8 -28 18
-28 23 0 5 -10 11 -22 15 -13 3 -35 16 -49 30 -15 14 -30 22 -33 19 -3 -4 -6
-1 -6 6 0 7 -4 9 -10 6 -5 -3 -10 -1 -10 5 0 6 -4 9 -9 6 -5 -3 -11 1 -15 9
-3 8 -15 15 -26 15 -11 0 -20 5 -20 10 0 6 -6 10 -14 10 -8 0 -16 3 -18 8 -1
4 -43 27 -93 52 -49 24 -93 48 -96 53 -3 5 -9 8 -13 6 -13 -4 -76 24 -76 35 0
5 -3 7 -6 3 -4 -3 -19 0 -35 9 -16 8 -29 12 -29 8 0 -3 -10 0 -22 8 -25 15
-108 43 -120 40 -5 -1 -8 3 -8 9 0 5 -4 8 -8 5 -5 -3 -19 0 -33 7 -13 7 -37
14 -54 16 -16 1 -32 6 -35 11 -3 4 -21 10 -40 14 -19 3 -46 9 -60 12 -14 3
-32 7 -40 8 -9 1 -20 5 -27 9 -6 4 -31 8 -57 8 -25 1 -46 6 -46 10 0 4 -15 7
-32 7 -18 -1 -40 2 -48 5 -19 7 -139 18 -207 19 -32 0 -50 4 -47 10 4 6 -1 6
-13 0 -11 -6 -25 -7 -33 -2 -16 10 -320 10 -320 0z"/>
</g>
</svg>
